<?xml version="1.0" encoding="utf-8"?>
<!-- Generator: Adobe Illustrator 19.0.0, SVG Export Plug-In . SVG Version: 6.00 Build 0)  -->
<svg version="1.1" id="Слой_1" xmlns="http://www.w3.org/2000/svg" xmlns:xlink="http://www.w3.org/1999/xlink" x="0px" y="0px"
	 viewBox="0 0 20.173 23.239" style="enable-background:new 0 0 20.173 23.239;" xml:space="preserve">
<style type="text/css">
	.st0{fill:#FFFFFF;}
</style>
<g id="XMLID_46_">
	<path id="XMLID_70_" class="st0" d="M10.087,0L10.087,0C4.549,0,0,1.483,0,3.362c0,0.494,1.187,7.516,1.681,10.284
		c0.198,1.286,3.461,3.066,8.406,3.066l0,0c4.944,0,8.109-1.78,8.406-3.066c0.494-2.769,1.681-9.79,1.681-10.284
		C20.075,1.483,15.625,0,10.087,0L10.087,0z M10.087,14.438c-1.78,0-3.164-1.384-3.164-3.164s1.384-3.164,3.164-3.164
		s3.164,1.384,3.164,3.164C13.251,12.954,11.867,14.438,10.087,14.438L10.087,14.438z M10.087,4.351
		c-3.56,0-6.428-0.593-6.428-1.384c0-0.791,2.868-1.384,6.428-1.384s6.428,0.593,6.428,1.384
		C16.515,3.758,13.647,4.351,10.087,4.351L10.087,4.351z"/>
	<path id="XMLID_61_" class="st0" d="M17.385,16.317c-0.198,0-0.297,0.099-0.297,0.099s-2.472,1.978-6.922,1.978
		s-6.922-1.978-6.922-1.978s-0.198-0.099-0.297-0.099c-0.198,0-0.396,0.099-0.396,0.396v0.099c0.396,2.077,0.692,3.56,0.692,3.758
		c0.297,1.483,3.263,2.67,6.823,2.67l0,0c3.56,0,6.527-1.187,6.823-2.67c0-0.198,0.297-1.681,0.692-3.758v-0.099
		C17.682,16.515,17.583,16.317,17.385,16.317L17.385,16.317z"/>
	<circle id="XMLID_60_" class="st0" cx="10.087" cy="11.174" r="1.582"/>
</g>
</svg>
