<?xml version="1.0" encoding="utf-8"?>
<!-- Generator: Adobe Illustrator 19.0.0, SVG Export Plug-In . SVG Version: 6.00 Build 0)  -->
<svg version="1.1" id="Слой_1" xmlns="http://www.w3.org/2000/svg" xmlns:xlink="http://www.w3.org/1999/xlink" x="0px" y="0px"
	 viewBox="0 0 90.444 90.339" style="enable-background:new 0 0 90.444 90.339;" xml:space="preserve">
<style type="text/css">
	.st0{fill:url(#XMLID_41_);}
	.st1{fill:url(#XMLID_42_);}
	.st2{fill:url(#XMLID_43_);}
	.st3{fill:url(#XMLID_44_);}
	.st4{fill:url(#XMLID_45_);}
</style>
<g id="XMLID_270_">
	<linearGradient id="XMLID_41_" gradientUnits="userSpaceOnUse" x1="67.2941" y1="-21.5665" x2="-6.2022" y2="72.9287">
		<stop  offset="0" style="stop-color:#00CFFF"/>
		<stop  offset="0.9019" style="stop-color:#3F72F5"/>
	</linearGradient>
	<path id="XMLID_275_" class="st0" d="M39.295,72.712H9.321c-1.884,0-3.413-1.529-3.413-3.403V18.631l-0.005-5.007h-2.5
		C1.525,13.624,0,12.095,0,10.21V3.413C0,1.53,1.53,0,3.403,0h83.638c1.878,0,3.403,1.53,3.403,3.413v6.797
		c0,1.884-1.53,3.413-3.403,3.413H12.719V11.82h74.322c0.879,0,1.599-0.72,1.599-1.609V3.413c0-0.884-0.72-1.608-1.599-1.608H3.403
		c-0.879,0-1.599,0.719-1.599,1.608v6.797c0,0.884,0.72,1.609,1.599,1.609h4.304l0.005,6.811v50.678c0,0.88,0.719,1.599,1.609,1.599
		h29.973V72.712z"/>
	<linearGradient id="XMLID_42_" gradientUnits="userSpaceOnUse" x1="109.5112" y1="11.2689" x2="36.0148" y2="105.7642">
		<stop  offset="0" style="stop-color:#00CFFF"/>
		<stop  offset="0.9019" style="stop-color:#3F72F5"/>
	</linearGradient>
	<path id="XMLID_274_" class="st1" d="M45.222,90.339c-2.934,0-5.317-2.385-5.317-5.318c0-2.623,1.914-4.812,4.418-5.241v-8.871
		h36.791c0.884,0,1.608-0.719,1.608-1.599V18.631h1.805v50.678c0,1.879-1.53,3.403-3.413,3.403H46.126v8.79h-0.904
		c-1.939,0-3.513,1.575-3.513,3.514c0,1.938,1.574,3.513,3.513,3.513c1.939,0,3.513-1.575,3.513-3.513h1.804
		C50.539,87.95,48.155,90.339,45.222,90.339z"/>
	<linearGradient id="XMLID_43_" gradientUnits="userSpaceOnUse" x1="86.3102" y1="-6.7763" x2="12.8138" y2="87.719">
		<stop  offset="0" style="stop-color:#00CFFF"/>
		<stop  offset="0.9019" style="stop-color:#3F72F5"/>
	</linearGradient>
	<path id="XMLID_273_" class="st2" d="M39.65,52.523l-0.371-1.764c6.417-1.348,11.075-7.096,11.075-13.662
		c0-0.88-0.086-1.774-0.256-2.655l1.774-0.339c0.191,0.994,0.29,1.998,0.29,2.994C52.153,44.508,46.896,50.994,39.65,52.523z"/>
	<linearGradient id="XMLID_44_" gradientUnits="userSpaceOnUse" x1="71.4085" y1="-18.3664" x2="-2.0878" y2="76.1288">
		<stop  offset="0" style="stop-color:#00CFFF"/>
		<stop  offset="0.9019" style="stop-color:#3F72F5"/>
	</linearGradient>
	<path id="XMLID_272_" class="st3" d="M33.113,52.523c-7.241-1.529-12.498-8.015-12.498-15.431c0-3.054,0.869-6.003,2.518-8.551
		l-3.273-7.97l7.97,3.273c2.548-1.649,5.497-2.519,8.551-2.519c7.546,0,14.057,5.373,15.481,12.779l-1.773,0.339
		c-1.26-6.557-7.027-11.313-13.708-11.313c-2.849,0-5.597,0.855-7.936,2.473l-0.406,0.28l-4.872-2l1.998,4.873l-0.28,0.404
		c-1.618,2.34-2.473,5.083-2.473,7.937c0,6.56,4.653,12.308,11.064,13.662L33.113,52.523z"/>
	<linearGradient id="XMLID_45_" gradientUnits="userSpaceOnUse" x1="97.9472" y1="2.2748" x2="24.4509" y2="96.7701">
		<stop  offset="0" style="stop-color:#00CFFF"/>
		<stop  offset="0.9019" style="stop-color:#3F72F5"/>
	</linearGradient>
	<path id="XMLID_271_" class="st4" d="M70.559,65.316l-7.972-3.273c-2.548,1.649-5.497,2.523-8.55,2.523
		c-7.547,0-14.059-5.372-15.482-12.778l-0.16-0.775l1.769-0.365l0.165,0.786C41.594,58,47.356,62.758,54.043,62.758
		c2.853,0,5.597-0.855,7.936-2.473l0.404-0.28l4.873,2.003l-2-4.872l0.28-0.406c1.62-2.339,2.473-5.082,2.473-7.936
		c0-6.562-4.652-12.308-11.064-13.663l0.375-1.764c7.241,1.53,12.499,8.016,12.499,15.433c0,3.054-0.87,6.001-2.519,8.551
		L70.559,65.316z"/>
</g>
</svg>
