<?xml version="1.0" encoding="utf-8"?>
<!-- Generator: Adobe Illustrator 19.0.0, SVG Export Plug-In . SVG Version: 6.00 Build 0)  -->
<svg version="1.1" id="Слой_1" xmlns="http://www.w3.org/2000/svg" xmlns:xlink="http://www.w3.org/1999/xlink" x="0px" y="0px"
	 viewBox="0 0 80.199 82.109" style="enable-background:new 0 0 80.199 82.109;" xml:space="preserve">
<style type="text/css">
	.st0{fill:url(#XMLID_41_);}
</style>
<linearGradient id="XMLID_41_" gradientUnits="userSpaceOnUse" x1="82.4413" y1="-2.6443" x2="17.9445" y2="111.35">
	<stop  offset="0" style="stop-color:#00CFFF"/>
	<stop  offset="0.9019" style="stop-color:#3F72F5"/>
</linearGradient>
<path id="XMLID_146_" class="st0" d="M61.999,66.832c8.608,0,15.534,5.937,16.082,13.426H45.917
	C46.464,72.77,53.391,66.832,61.999,66.832z M18.2,66.832c8.608,0,15.534,5.937,16.082,13.426H2.118
	C2.666,72.77,9.592,66.832,18.2,66.832z M61.999,64.983c-10.015,0-18.2,7.255-18.2,16.2c-0.005,0.488,0.482,0.936,1.015,0.925
	h34.371c0.532,0.01,1.02-0.438,1.015-0.925C80.199,72.238,72.014,64.983,61.999,64.983z M18.2,64.983
	c-10.015,0-18.2,7.255-18.2,16.2c-0.005,0.488,0.482,0.936,1.015,0.925h34.371c0.532,0.01,1.02-0.438,1.015-0.925
	C36.4,72.238,28.215,64.983,18.2,64.983z M62.059,47.767c3.177,0,5.699,2.522,5.699,5.699s-2.522,5.699-5.699,5.699
	s-5.699-2.522-5.699-5.699S58.881,47.767,62.059,47.767z M18.14,47.767c3.177,0,5.699,2.522,5.699,5.699s-2.522,5.699-5.699,5.699
	s-5.699-2.522-5.699-5.699S14.963,47.767,18.14,47.767z M62.059,45.799c-4.207,0-7.667,3.46-7.667,7.667s3.46,7.667,7.667,7.667
	s7.667-3.46,7.667-7.667S66.266,45.799,62.059,45.799z M18.14,45.799c-4.207,0-7.667,3.46-7.667,7.667s3.46,7.667,7.667,7.667
	s7.667-3.46,7.667-7.667S22.348,45.799,18.14,45.799z M39.98,41.98c-0.467,0.059-0.855,0.512-0.835,0.984v10.95l-9.13,6.384
	c-0.412,0.284-0.527,0.91-0.248,1.323c0.279,0.412,0.91,0.532,1.323,0.258l9.01-6.324l9.01,6.324
	c0.412,0.279,1.044,0.154,1.323-0.258c0.279-0.412,0.164-1.039-0.248-1.323l-9.13-6.384v-10.95
	C41.075,42.411,40.527,41.91,39.98,41.98z M40.099,20.975c8.608,0,15.534,5.937,16.082,13.425H24.018
	C24.565,26.912,31.491,20.975,40.099,20.975z M40.099,19.124c-10.015,0-18.2,7.256-18.2,16.201
	c-0.005,0.488,0.482,0.934,1.015,0.925h34.371c0.532,0.009,1.02-0.438,1.015-0.925C58.3,26.38,50.114,19.124,40.099,19.124z
	 M40.099,1.939c3.177,0,5.699,2.556,5.699,5.728c0,3.179-2.522,5.699-5.699,5.699c-3.177,0-5.699-2.521-5.699-5.699
	C34.4,4.495,36.922,1.939,40.099,1.939z M40.099,0c-4.207,0-7.667,3.461-7.667,7.667c0,4.207,3.46,7.638,7.667,7.638
	s7.667-3.431,7.667-7.638C47.767,3.461,44.307,0,40.099,0z"/>
</svg>
