<?xml version="1.0" encoding="utf-8"?>
<!-- Generator: Adobe Illustrator 19.0.0, SVG Export Plug-In . SVG Version: 6.00 Build 0)  -->
<svg version="1.1" id="Слой_1" xmlns="http://www.w3.org/2000/svg" xmlns:xlink="http://www.w3.org/1999/xlink" x="0px" y="0px"
	 viewBox="0 0 12.564 23.239" style="enable-background:new 0 0 12.564 23.239;" xml:space="preserve">
<style type="text/css">
	.st0{fill:#FFFFFF;}
</style>
<g id="XMLID_378_">
	<path id="XMLID_379_" class="st0" d="M12.091,0.005L9.077,0C5.692,0,3.504,2.245,3.504,5.719v2.637h-3.03
		C0.212,8.356,0,8.568,0,8.83v3.821c0,0.262,0.212,0.474,0.474,0.474h3.03v9.641c0,0.262,0.212,0.474,0.474,0.474h3.953
		c0.262,0,0.474-0.212,0.474-0.474v-9.641h3.543c0.262,0,0.474-0.212,0.474-0.474l0.001-3.821c0-0.126-0.05-0.246-0.139-0.335
		c-0.089-0.089-0.21-0.139-0.335-0.139H8.405V6.121c0-1.074,0.256-1.62,1.656-1.62l2.03-0.001c0.262,0,0.474-0.212,0.474-0.474
		V0.479C12.564,0.217,12.352,0.005,12.091,0.005z"/>
</g>
</svg>
