<?xml version="1.0" encoding="utf-8"?>
<!-- Generator: Adobe Illustrator 19.0.0, SVG Export Plug-In . SVG Version: 6.00 Build 0)  -->
<svg version="1.1" id="Слой_1" xmlns="http://www.w3.org/2000/svg" xmlns:xlink="http://www.w3.org/1999/xlink" x="0px" y="0px"
	 viewBox="0 0 23.706 23.121" style="enable-background:new 0 0 23.706 23.121;" xml:space="preserve">
<style type="text/css">
	.st0{fill-rule:evenodd;clip-rule:evenodd;fill:#FFFFFF;}
</style>
<path id="XMLID_75_" class="st0" d="M11.852,0C5.307,0,0,5.307,0,11.854c0,5.236,3.396,9.679,8.107,11.247
	c0.593,0.109,0.809-0.257,0.809-0.571c0-0.281-0.01-1.027-0.016-2.016c-3.297,0.716-3.993-1.589-3.993-1.589
	c-0.539-1.369-1.316-1.734-1.316-1.734c-1.076-0.735,0.081-0.721,0.081-0.721c1.19,0.084,1.816,1.222,1.816,1.222
	c1.057,1.811,2.774,1.288,3.45,0.985c0.108-0.766,0.414-1.288,0.753-1.585c-2.632-0.299-5.399-1.316-5.399-5.858
	c0-1.294,0.462-2.352,1.22-3.181c-0.122-0.3-0.529-1.505,0.116-3.137c0,0,0.995-0.319,3.26,1.215
	c0.945-0.263,1.959-0.394,2.967-0.399c1.007,0.005,2.021,0.136,2.967,0.399c2.263-1.534,3.256-1.215,3.256-1.215
	c0.647,1.632,0.24,2.837,0.118,3.137c0.76,0.829,1.218,1.887,1.218,3.181c0,4.554-2.771,5.556-5.412,5.849
	c0.426,0.366,0.805,1.089,0.805,2.195c0,1.585-0.015,2.863-0.015,3.252c0,0.317,0.213,0.686,0.815,0.57
	c4.706-1.57,8.099-6.01,8.099-11.245C23.706,5.307,18.399,0,11.852,0z"/>
</svg>
