<?xml version="1.0" encoding="utf-8"?>
<!-- Generator: Adobe Illustrator 19.0.0, SVG Export Plug-In . SVG Version: 6.00 Build 0)  -->
<svg version="1.1" id="Слой_1" xmlns="http://www.w3.org/2000/svg" xmlns:xlink="http://www.w3.org/1999/xlink" x="0px" y="0px"
	 viewBox="0 0 24.473 23.386" style="enable-background:new 0 0 24.473 23.386;" xml:space="preserve">
<style type="text/css">
	.st0{fill:#FFFFFF;}
</style>
<g id="XMLID_382_">
	<path id="LinkedIn_1_" class="st0" d="M24.473,14.338v9.048h-5.245v-8.442c0-2.121-0.759-3.568-2.657-3.568
		c-1.449,0-2.312,0.975-2.691,1.919c-0.138,0.337-0.174,0.807-0.174,1.279v8.812H8.458c0,0,0.071-14.298,0-15.779h5.247v2.237
		C13.694,9.86,13.68,9.878,13.67,9.894h0.034V9.843c0.697-1.074,1.942-2.607,4.728-2.607C21.885,7.236,24.473,9.491,24.473,14.338z
		 M2.969,0C1.174,0,0,1.177,0,2.726C0,4.24,1.14,5.454,2.9,5.454h0.035c1.83,0,2.968-1.213,2.968-2.728C5.868,1.177,4.764,0,2.969,0
		z M0.312,23.386h5.245V7.606H0.312V23.386z"/>
</g>
</svg>
