<?xml version="1.0" encoding="utf-8"?>
<!-- Generator: Adobe Illustrator 19.0.0, SVG Export Plug-In . SVG Version: 6.00 Build 0)  -->
<svg version="1.1" id="Слой_1" xmlns="http://www.w3.org/2000/svg" xmlns:xlink="http://www.w3.org/1999/xlink" x="0px" y="0px"
	 viewBox="0 0 26.59 21.609" style="enable-background:new 0 0 26.59 21.609;" xml:space="preserve">
<style type="text/css">
	.st0{fill:#FFFFFF;}
</style>
<g id="XMLID_380_">
	<path id="XMLID_381_" class="st0" d="M26.59,2.558c-0.978,0.434-2.03,0.727-3.133,0.859c1.126-0.675,1.991-1.744,2.399-3.018
		c-1.054,0.625-2.222,1.079-3.464,1.324C21.397,0.662,19.979,0,18.41,0c-3.013,0-5.455,2.442-5.455,5.455
		c0,0.428,0.048,0.844,0.141,1.243c-4.534-0.228-8.554-2.399-11.244-5.7c-0.47,0.806-0.739,1.743-0.739,2.743
		c0,1.893,0.963,3.562,2.427,4.541C2.645,8.253,1.804,8.008,1.069,7.599C1.068,7.622,1.068,7.645,1.068,7.668
		c0,2.643,1.88,4.848,4.376,5.349c-0.458,0.125-0.94,0.191-1.437,0.191c-0.352,0-0.693-0.034-1.026-0.098
		c0.694,2.167,2.709,3.745,5.096,3.789c-1.867,1.463-4.219,2.335-6.775,2.335c-0.44,0-0.875-0.026-1.301-0.076
		c2.414,1.548,5.282,2.451,8.363,2.451c10.034,0,15.522-8.313,15.522-15.522c0-0.237-0.005-0.472-0.016-0.706
		C24.934,4.613,25.859,3.652,26.59,2.558z"/>
</g>
</svg>
