<?xml version="1.0" encoding="utf-8"?>
<!-- Generator: Adobe Illustrator 19.0.0, SVG Export Plug-In . SVG Version: 6.00 Build 0)  -->
<svg version="1.1" id="Слой_1" xmlns="http://www.w3.org/2000/svg" xmlns:xlink="http://www.w3.org/1999/xlink" x="0px" y="0px"
	 viewBox="0 0 23.993 24.679" style="enable-background:new 0 0 23.993 24.679;" xml:space="preserve">
<style type="text/css">
	.st0{fill:#FFFFFF;}
</style>
<g id="XMLID_354_">
	<g id="XMLID_355_">
		<path id="XMLID_374_" class="st0" d="M15.617,0H9.731C7.108,0,5.293,0.575,3.659,1.925c-1.285,1.109-2.052,2.72-2.052,4.31
			c0,2.45,1.868,5.054,5.33,5.054c0.333,0,0.701-0.034,1.027-0.064l-0.048,0.116c-0.139,0.333-0.271,0.648-0.271,1.139
			c0,0.956,0.461,1.545,0.907,2.115l0.056,0.072l-0.1,0.007c-1.43,0.098-4.09,0.28-6.034,1.475C0.178,17.514,0,19.5,0,20.075
			c0,2.291,2.135,4.603,6.905,4.603c5.546,0,8.448-3.06,8.448-6.082c0.001-2.236-1.31-3.339-2.702-4.511l-1.174-0.913
			c-0.363-0.3-0.814-0.674-0.814-1.367c0-0.681,0.452-1.131,0.85-1.527l0.042-0.042c1.267-0.998,2.704-2.13,2.704-4.579
			c0-2.462-1.538-3.734-2.278-4.345h1.953c0.024,0,0.048-0.007,0.068-0.02l1.682-1.058c0.048-0.03,0.07-0.089,0.055-0.143
			C15.724,0.037,15.673,0,15.617,0z M8.479,23.33c-3.381,0-5.652-1.579-5.652-3.929c0-1.535,0.929-2.65,2.759-3.313
			c1.465-0.493,3.357-0.518,3.376-0.518c0.32,0,0.481,0,0.737,0.032c2.365,1.683,3.503,2.567,3.503,4.251
			C13.201,21.998,11.392,23.33,8.479,23.33z M8.448,10.388c-2.837,0-4.015-3.73-4.015-5.727c0-1.015,0.231-1.795,0.706-2.383
			c0.516-0.645,1.398-1.062,2.249-1.062c2.605,0,4.046,3.501,4.046,5.922c0,0.382,0,1.543-0.802,2.35
			C10.092,10.026,9.214,10.388,8.448,10.388z"/>
		<path id="XMLID_356_" class="st0" d="M23.866,11.526h-3.101v-3.09c0-0.07-0.057-0.127-0.127-0.127h-1.334
			c-0.07,0-0.127,0.057-0.127,0.127v3.09H16.09c-0.07,0-0.127,0.057-0.127,0.127v1.352c0,0.07,0.057,0.127,0.127,0.127h3.086v3.11
			c0,0.07,0.057,0.127,0.127,0.127h1.334c0.07,0,0.127-0.057,0.127-0.127v-3.111h3.101c0.07,0,0.127-0.057,0.127-0.127v-1.351
			C23.993,11.583,23.936,11.526,23.866,11.526z"/>
	</g>
</g>
</svg>
