<?xml version="1.0" encoding="utf-8"?>
<!-- Generator: Adobe Illustrator 19.0.0, SVG Export Plug-In . SVG Version: 6.00 Build 0)  -->
<svg version="1.1" id="Слой_1" xmlns="http://www.w3.org/2000/svg" xmlns:xlink="http://www.w3.org/1999/xlink" x="0px" y="0px"
	 viewBox="0 0 23.18 15.35" style="enable-background:new 0 0 23.18 15.35;" xml:space="preserve">
<style>
	.convert {
		fill: white;
	}
	.convert:hover {
		fill: black!important;
	}
</style>

<g id="XMLID_675_">
	<path id="XMLID_689_" class="convert" d="M1.143,14.21h20.898V1.14H1.143V14.21z M23.18,15.35H0.003V0H23.18V15.35z"/>
	<path id="XMLID_686_" class="convert" d="M2.131,1.14l9.423,8.207l9.423-8.207H2.131z M11.554,10.715c-0.152,0-0.304-0.076-0.38-0.152
		L0.231,0.988C0.003,0.836-0.073,0.532,0.079,0.304C0.155,0.152,0.307,0,0.611,0h21.962c0.228,0,0.456,0.152,0.532,0.38
		s0,0.456-0.152,0.608l-11.019,9.575C11.858,10.639,11.706,10.715,11.554,10.715z"/>
	
		<rect id="XMLID_685_" x="12.721" y="10.945" transform="matrix(0.8017 0.5977 -0.5977 0.8017 10.4898 -8.5902)" class="convert" width="10.943" height="1.14"/>
	
		<rect id="XMLID_684_" x="4.353" y="6.03" transform="matrix(0.5974 0.8019 -0.8019 0.5974 11.2048 0.6823)" class="convert" width="1.14" height="10.943"/>
</g>
</svg>
