<svg width="9.5" height="10" xmlns="http://www.w3.org/2000/svg">

 <g>
  <title>background</title>
  <rect fill="none" id="canvas_background" height="12" width="11.5" y="-1" x="-1"/>
 </g>
 <g>
  <title>Layer 1</title>
  <path fill="#2f51bc" id="svg_1" d="m4.9,5.4l-4.1,4.5c-0.1,0.1 -0.2,0.1 -0.3,0.1c-0.1,0 -0.3,0 -0.4,-0.1c-0.1,-0.3 -0.1,-0.6 0,-0.8l3.8,-4.1l-3.8,-4.1c-0.1,-0.2 -0.1,-0.5 0,-0.7c0.2,-0.2 0.5,-0.2 0.7,0l4.1,4.5c0.2,0.1 0.2,0.5 0,0.7l0,0zm4.4,0l-4,4.5c-0.1,0.1 -0.3,0.1 -0.4,0.1c-0.1,0 -0.2,0 -0.3,-0.1c-0.2,-0.2 -0.2,-0.5 0,-0.7l3.7,-4.2l-3.7,-4.1c-0.2,-0.2 -0.2,-0.5 0,-0.7c0.2,-0.2 0.5,-0.2 0.7,0l4.1,4.5c0.1,0.1 0.1,0.5 -0.1,0.7l0,0z"/>
 </g>
</svg>