<?xml version="1.0" encoding="utf-8"?>
<!-- Generator: Adobe Illustrator 19.2.0, SVG Export Plug-In . SVG Version: 6.00 Build 0)  -->
<svg version="1.1" id="Layer_1" xmlns="http://www.w3.org/2000/svg" xmlns:xlink="http://www.w3.org/1999/xlink" x="0px" y="0px"
	 viewBox="0 0 9.5 10" style="enable-background:new 0 0 9.5 10;" xml:space="preserve">
<path d="M4.9,5.4L0.8,9.9C0.7,10,0.6,10,0.5,10C0.4,10,0.2,10,0.1,9.9C0,9.6,0,9.3,0.1,9.1L3.9,5L0.1,0.9C0,0.7,0,0.4,0.1,0.2
	c0.2-0.2,0.5-0.2,0.7,0l4.1,4.5C5.1,4.8,5.1,5.2,4.9,5.4L4.9,5.4z M9.3,5.4L5.3,9.9C5.2,10,5,10,4.9,10C4.8,10,4.7,10,4.6,9.9
	c-0.2-0.2-0.2-0.5,0-0.7L8.3,5L4.6,0.9c-0.2-0.2-0.2-0.5,0-0.7c0.2-0.2,0.5-0.2,0.7,0l4.1,4.5C9.5,4.8,9.5,5.2,9.3,5.4L9.3,5.4z"/>
</svg>
