<?xml version="1.0" encoding="utf-8"?>
<!-- Generator: Adobe Illustrator 19.2.0, SVG Export Plug-In . SVG Version: 6.00 Build 0)  -->
<svg version="1.1" id="Layer_1" xmlns="http://www.w3.org/2000/svg" xmlns:xlink="http://www.w3.org/1999/xlink" x="0px" y="0px"
	 viewBox="0 0 228 73.7" style="enable-background:new 0 0 228 73.7;" xml:space="preserve">
<style type="text/css">
	.st0{fill:#FFFFFF;}
	.st1{fill:#00E1A4;}
	.st2{fill:#00FFAB;}
	.st3{fill:#00C9E8;}
	.st4{fill:#00E7FF;}
</style>
<g id="XMLID_1_">
	<g>
		<path class="st0" d="M86.3,45.1V27.8h11.2v1.4H88v6.3h8.7v1.4H88v8.3h-1.7V45.1z"/>
		<path class="st0" d="M101.5,37.2v7.9h-1.6V27.8h6.8c1.9,0,3.4,0.4,4.4,1.1s1.5,1.9,1.5,3.5c0,1.1-0.2,2-0.7,2.6
			c-0.4,0.6-1.2,1.2-2.2,1.6c0.5,0.2,0.9,0.4,1.2,0.8c0.3,0.3,0.5,0.7,0.7,1.2c0.1,0.4,0.2,0.9,0.3,1.4c0,0.5,0.1,0.9,0.1,1.4
			c0,0.7,0,1.2,0.1,1.6c0,0.4,0.1,0.8,0.1,1.1c0.1,0.3,0.1,0.5,0.2,0.6c0.1,0.2,0.2,0.3,0.3,0.4v0.1h-1.8c-0.2-0.3-0.3-0.7-0.4-1.2
			s-0.1-1.1-0.2-1.6c0-0.6-0.1-1.1-0.1-1.6s-0.1-1-0.1-1.3c-0.1-0.5-0.3-0.8-0.5-1.1s-0.5-0.5-0.8-0.6s-0.6-0.2-1-0.3
			c-0.4,0-0.8-0.1-1.2-0.1h-5.1V37.2z M106.6,35.8c0.6,0,1.2-0.1,1.7-0.2c0.5-0.1,1-0.3,1.4-0.6s0.7-0.6,0.9-1.1
			c0.2-0.4,0.3-1,0.3-1.6c0-0.6-0.1-1.2-0.4-1.6c-0.2-0.4-0.5-0.7-0.9-1c-0.4-0.2-0.8-0.4-1.3-0.5s-1-0.1-1.6-0.1h-5.2v6.7
			C101.5,35.8,106.6,35.8,106.6,35.8z"/>
		<path class="st0" d="M115.9,45.1V27.8h11.5v1.4h-9.9v6.3h8.9v1.4h-8.9v6.9h10.1v1.4h-11.7V45.1z"/>
		<path class="st0" d="M131.3,39.9c0.1,0.8,0.2,1.4,0.5,2c0.3,0.5,0.6,1,1.1,1.3c0.4,0.3,1,0.6,1.5,0.7c0.6,0.2,1.2,0.2,1.9,0.2
			c0.8,0,1.4-0.1,2-0.3s1-0.5,1.4-0.8s0.6-0.7,0.8-1.1c0.2-0.4,0.3-0.9,0.3-1.4c0-0.7-0.2-1.2-0.5-1.6c-0.3-0.4-0.7-0.8-1.2-1
			c-0.5-0.3-1.1-0.5-1.7-0.6c-0.6-0.2-1.3-0.3-2-0.5s-1.3-0.3-1.9-0.5c-0.6-0.2-1.2-0.5-1.7-0.8c-0.5-0.4-0.9-0.8-1.2-1.4
			c-0.3-0.6-0.5-1.3-0.5-2.1c0-0.6,0.1-1.2,0.4-1.7c0.2-0.6,0.6-1.1,1.1-1.5s1.1-0.8,1.8-1c0.7-0.3,1.6-0.4,2.6-0.4s1.8,0.1,2.6,0.4
			c0.7,0.3,1.3,0.6,1.8,1.1s0.8,1,1.1,1.7c0.2,0.6,0.4,1.3,0.4,2h-1.6c0-0.7-0.1-1.2-0.4-1.7c-0.2-0.5-0.6-0.9-1-1.2
			c-0.4-0.3-0.9-0.5-1.4-0.7c-0.5-0.1-1-0.2-1.6-0.2c-0.8,0-1.5,0.1-2.1,0.3c-0.6,0.2-1,0.5-1.4,0.9c-0.3,0.4-0.6,0.8-0.7,1.2
			c-0.1,0.4-0.2,0.9-0.1,1.3c0.1,0.6,0.3,1,0.7,1.3s0.8,0.6,1.3,0.8s1.1,0.4,1.7,0.5s1.2,0.3,1.9,0.4c0.6,0.2,1.3,0.3,1.9,0.5
			c0.6,0.2,1.1,0.5,1.6,0.8c0.5,0.4,0.8,0.8,1.1,1.4c0.3,0.6,0.4,1.2,0.4,2.1c0,1.6-0.6,2.9-1.7,3.7c-1.1,0.9-2.7,1.3-4.7,1.3
			c-0.9,0-1.7-0.1-2.5-0.3s-1.4-0.6-2-1.1s-1-1.1-1.3-1.8s-0.5-1.5-0.5-2.5h1.8V39.9z"/>
		<path class="st0" d="M145.3,45.1V27.8h1.6v7.4h10.3v-7.4h1.6v17.3h-1.6v-8.5H147v8.5H145.3z"/>
		<path class="st0" d="M175,32.8c-0.3-1.5-1-2.5-1.9-3.2c-0.9-0.6-2.1-0.9-3.6-0.9c-1,0-1.9,0.2-2.7,0.6s-1.4,1-1.9,1.7
			s-0.9,1.5-1.1,2.4c-0.2,0.9-0.4,1.9-0.4,2.9s0.1,1.9,0.3,2.8c0.2,0.9,0.5,1.8,1,2.5s1.1,1.3,1.9,1.8c0.8,0.4,1.8,0.7,3,0.7
			c0.7,0,1.4-0.1,2-0.4c0.6-0.2,1.1-0.6,1.6-1s0.8-0.9,1.2-1.5c0.3-0.6,0.6-1.2,0.7-1.9h1.7c-0.2,0.8-0.5,1.6-0.8,2.4
			c-0.4,0.7-0.9,1.4-1.5,2s-1.3,1-2.2,1.3s-1.9,0.5-3,0.5c-1.3,0-2.5-0.2-3.4-0.7s-1.7-1.2-2.3-2s-1-1.8-1.3-2.9
			c-0.3-1.1-0.4-2.3-0.4-3.5c0-1.7,0.2-3.1,0.6-4.2c0.4-1.2,1-2.1,1.7-2.8c0.7-0.7,1.6-1.3,2.6-1.6c1-0.3,2-0.5,3.2-0.5
			c0.9,0,1.7,0.1,2.5,0.3c0.8,0.2,1.4,0.6,2,1c0.6,0.5,1.1,1,1.4,1.7c0.4,0.7,0.6,1.5,0.8,2.4H175V32.8z"/>
		<path class="st0" d="M179.5,36.5c0-1.3,0.2-2.5,0.5-3.6c0.3-1.1,0.9-2.1,1.5-2.9c0.7-0.8,1.5-1.5,2.5-2s2.1-0.7,3.4-0.7
			c1.3,0,2.5,0.2,3.6,0.7c1,0.5,1.9,1.1,2.6,2c0.7,0.8,1.2,1.8,1.5,2.9c0.3,1.1,0.5,2.3,0.5,3.6s-0.2,2.4-0.5,3.5s-0.9,2.1-1.5,2.9
			c-0.7,0.8-1.5,1.5-2.5,2s-2.2,0.7-3.5,0.7s-2.5-0.2-3.5-0.7s-1.9-1.1-2.5-2c-0.7-0.8-1.2-1.8-1.5-2.9S179.5,37.7,179.5,36.5z
			 M187.5,44.2c1.1,0,2.1-0.2,2.9-0.6c0.8-0.4,1.5-1,2-1.7s0.9-1.5,1.2-2.5c0.2-0.9,0.4-1.9,0.4-2.9c0-1.2-0.1-2.3-0.4-3.2
			c-0.3-1-0.7-1.8-1.3-2.4s-1.2-1.2-2-1.5c-0.8-0.4-1.7-0.5-2.7-0.5c-1.1,0-2.1,0.2-2.9,0.6c-0.8,0.4-1.5,1-2,1.7s-0.9,1.5-1.2,2.5
			c-0.2,0.9-0.4,1.9-0.4,2.9s0.1,2,0.4,2.9c0.2,0.9,0.6,1.8,1.2,2.5c0.5,0.7,1.2,1.3,2,1.7C185.4,44,186.4,44.2,187.5,44.2z"/>
		<path class="st0" d="M198.9,45.1V27.8h5.9c0.5,0,1,0,1.4,0c0.5,0,0.9,0.1,1.4,0.2c0.4,0.1,0.9,0.2,1.3,0.4
			c0.4,0.2,0.8,0.4,1.2,0.7c0.6,0.4,1.1,0.9,1.4,1.5c0.4,0.6,0.7,1.2,0.9,1.9c0.2,0.7,0.4,1.3,0.5,2s0.1,1.3,0.1,1.9
			c0,0.6,0,1.2-0.1,1.8s-0.2,1.2-0.3,1.7c-0.2,0.6-0.4,1.1-0.6,1.6c-0.3,0.5-0.6,1-1,1.4s-0.8,0.8-1.3,1.1s-1,0.5-1.5,0.6
			c-0.5,0.2-1.1,0.3-1.6,0.3c-0.6,0.1-1.1,0.1-1.7,0.1h-6V45.1z M200.5,43.7h3.9c0.7,0,1.4,0,2.1-0.1c0.7-0.1,1.3-0.3,2-0.7
			c0.6-0.3,1.1-0.7,1.4-1.2c0.4-0.5,0.7-1,0.9-1.6s0.4-1.2,0.5-1.8s0.1-1.3,0.1-1.9c0-0.6,0-1.3-0.1-1.9c-0.1-0.6-0.2-1.3-0.5-1.9
			c-0.2-0.6-0.5-1.1-0.9-1.6s-0.9-0.9-1.5-1.2c-0.5-0.3-1.1-0.4-1.8-0.5s-1.4-0.1-2.1-0.1h-3.9L200.5,43.7L200.5,43.7z"/>
		<path class="st0" d="M216.3,45.1V27.8h11.5v1.4h-9.9v6.3h8.9v1.4h-8.9v6.9H228v1.4h-11.7V45.1z"/>
	</g>
</g>
<g id="XMLID_69_">
	<polygon id="XMLID_73_" class="st1" points="49.2,20.4 45.2,24.4 57.6,36.8 45.2,49.3 49.2,53.3 65.6,36.8 	"/>
	<polygon id="XMLID_72_" class="st2" points="53.4,16.2 49.2,20.4 65.6,36.8 49.2,53.3 53.4,57.5 74,36.8 	"/>
	<polygon id="XMLID_71_" class="st3" points="51.1,14.3 44.5,7.7 15.3,36.8 44.5,66 36.8,73.7 36.8,73.7 51.1,59.4 28.5,36.8 	"/>
	<polygon id="XMLID_70_" class="st4" points="15.3,36.8 44.5,7.7 36.8,0 0,36.8 36.8,73.7 44.5,66 	"/>
</g>
</svg>
