<?xml version="1.0" encoding="utf-8"?>
<!-- Generator: Adobe Illustrator 19.2.0, SVG Export Plug-In . SVG Version: 6.00 Build 0)  -->
<svg version="1.1" id="Layer_1" xmlns="http://www.w3.org/2000/svg" xmlns:xlink="http://www.w3.org/1999/xlink" x="0px" y="0px"
	 viewBox="0 0 192.3 73.7" style="enable-background:new 0 0 192.3 73.7;" xml:space="preserve">
<style type="text/css">
	.st0{fill:#00E1A4;}
	.st1{fill:#00FFAB;}
	.st2{fill:#00C9E8;}
	.st3{fill:#00E7FF;}
	.st4{fill:#FFFFFF;}
</style>
<g id="XMLID_590_">
	<g id="XMLID_593_">
		<g id="XMLID_597_">
			<polygon class="st0" points="49.2,20.4 45.2,24.4 57.6,36.8 45.2,49.3 49.2,53.3 65.6,36.8 			"/>
		</g>
		<g id="XMLID_596_">
			<polygon class="st1" points="53.4,16.2 49.2,20.4 65.6,36.8 49.2,53.3 53.4,57.5 74,36.8 			"/>
		</g>
		<g id="XMLID_595_">
			<polygon class="st2" points="51.1,14.3 44.5,7.7 15.3,36.8 44.5,66 36.8,73.7 36.8,73.7 51.1,59.4 28.5,36.8 			"/>
		</g>
		<g id="XMLID_594_">
			<polygon class="st3" points="15.3,36.8 44.5,7.7 36.8,0 0,36.8 36.8,73.7 44.5,66 			"/>
		</g>
	</g>
	<g id="XMLID_591_">
		<g id="XMLID_592_">
			<path class="st4" d="M86.3,42.9v-13h8.4v1h-7.1v4.7H94v1h-6.5v6.2H86.3z"/>
			<path class="st4" d="M97.7,37v5.9l-1.2,0V29.9h5.1c1.4,0,2.5,0.3,3.3,0.8c0.8,0.5,1.1,1.4,1.1,2.6c0,0.8-0.2,1.5-0.5,1.9
				c-0.3,0.5-0.9,0.9-1.6,1.2c0.4,0.1,0.7,0.3,0.9,0.6c0.2,0.3,0.4,0.5,0.5,0.9c0.1,0.3,0.2,0.7,0.2,1c0,0.4,0.1,0.7,0.1,1
				c0,0.5,0,0.9,0.1,1.2c0,0.3,0.1,0.6,0.1,0.8c0,0.2,0.1,0.4,0.2,0.5c0.1,0.1,0.1,0.2,0.2,0.3v0.1l-1.3,0c-0.1-0.2-0.2-0.5-0.3-0.9
				c-0.1-0.4-0.1-0.8-0.1-1.2c0-0.4-0.1-0.8-0.1-1.2c0-0.4-0.1-0.7-0.1-1c-0.1-0.3-0.2-0.6-0.4-0.8c-0.2-0.2-0.4-0.4-0.6-0.5
				c-0.2-0.1-0.5-0.2-0.8-0.2c-0.3,0-0.6-0.1-0.9-0.1H97.7z M101.5,35.9c0.5,0,0.9,0,1.3-0.1c0.4-0.1,0.7-0.2,1-0.5
				c0.3-0.2,0.5-0.5,0.7-0.8c0.2-0.3,0.3-0.7,0.3-1.2c0-0.5-0.1-0.9-0.3-1.2s-0.4-0.6-0.7-0.7c-0.3-0.2-0.6-0.3-1-0.4
				c-0.4-0.1-0.8-0.1-1.2-0.1h-3.9v5H101.5z"/>
			<path class="st4" d="M108.5,42.9v-13h8.6v1h-7.4v4.7h6.7v1h-6.7v5.1h7.6v1H108.5z"/>
			<path class="st4" d="M120,39c0,0.6,0.2,1.1,0.4,1.5c0.2,0.4,0.5,0.7,0.8,1c0.3,0.3,0.7,0.4,1.1,0.5c0.4,0.1,0.9,0.2,1.4,0.2
				c0.6,0,1.1-0.1,1.5-0.2s0.8-0.3,1-0.6c0.3-0.2,0.5-0.5,0.6-0.9c0.1-0.3,0.2-0.7,0.2-1c0-0.5-0.1-0.9-0.3-1.2
				c-0.2-0.3-0.5-0.6-0.9-0.8c-0.4-0.2-0.8-0.4-1.3-0.5c-0.5-0.1-1-0.2-1.5-0.4c-0.5-0.1-1-0.2-1.5-0.4c-0.5-0.2-0.9-0.4-1.3-0.6
				c-0.4-0.3-0.7-0.6-0.9-1s-0.3-0.9-0.3-1.6c0-0.4,0.1-0.9,0.3-1.3c0.2-0.4,0.5-0.8,0.8-1.1c0.4-0.3,0.8-0.6,1.4-0.8
				c0.6-0.2,1.2-0.3,1.9-0.3c0.7,0,1.4,0.1,1.9,0.3c0.5,0.2,1,0.5,1.4,0.8c0.4,0.4,0.6,0.8,0.8,1.2c0.2,0.5,0.3,1,0.3,1.5h-1.2
				c0-0.5-0.1-0.9-0.3-1.3s-0.4-0.7-0.7-0.9c-0.3-0.2-0.6-0.4-1-0.5c-0.4-0.1-0.8-0.2-1.2-0.2c-0.6,0-1.2,0.1-1.6,0.3
				c-0.4,0.2-0.8,0.4-1,0.7c-0.3,0.3-0.4,0.6-0.5,0.9c-0.1,0.3-0.1,0.7-0.1,1c0.1,0.4,0.2,0.8,0.5,1c0.3,0.3,0.6,0.5,1,0.6
				c0.4,0.2,0.8,0.3,1.3,0.4c0.5,0.1,0.9,0.2,1.4,0.3s0.9,0.2,1.4,0.4c0.4,0.2,0.8,0.4,1.2,0.6c0.3,0.3,0.6,0.6,0.8,1
				s0.3,0.9,0.3,1.6c0,1.2-0.4,2.1-1.2,2.8c-0.8,0.7-2,1-3.5,1c-0.7,0-1.3-0.1-1.9-0.3s-1.1-0.4-1.5-0.8s-0.7-0.8-1-1.3
				s-0.4-1.1-0.4-1.8H120z"/>
			<path class="st4" d="M130.4,42.9v-13h1.2v5.6h7.7v-5.6h1.2v13h-1.2v-6.4h-7.7v6.4H130.4z"/>
			<path class="st4" d="M152.7,33.7c-0.3-1.1-0.7-1.9-1.4-2.4c-0.7-0.5-1.6-0.7-2.7-0.7c-0.8,0-1.5,0.2-2,0.5
				c-0.6,0.3-1,0.7-1.4,1.3c-0.4,0.5-0.6,1.1-0.8,1.8c-0.2,0.7-0.3,1.4-0.3,2.2c0,0.7,0.1,1.4,0.2,2.1c0.2,0.7,0.4,1.3,0.7,1.9
				c0.3,0.5,0.8,1,1.4,1.3s1.3,0.5,2.2,0.5c0.6,0,1.1-0.1,1.5-0.3c0.5-0.2,0.9-0.4,1.2-0.7c0.3-0.3,0.6-0.7,0.9-1.1
				c0.2-0.4,0.4-0.9,0.5-1.4h1.3c-0.1,0.6-0.4,1.2-0.6,1.8c-0.3,0.6-0.6,1-1.1,1.5c-0.4,0.4-1,0.8-1.6,1c-0.6,0.2-1.4,0.4-2.3,0.4
				c-1,0-1.8-0.2-2.6-0.5s-1.3-0.9-1.7-1.5c-0.4-0.6-0.8-1.3-1-2.2c-0.2-0.8-0.3-1.7-0.3-2.6c0-1.2,0.2-2.3,0.5-3.1
				c0.3-0.9,0.7-1.6,1.3-2.1c0.5-0.5,1.2-0.9,1.9-1.2c0.7-0.2,1.5-0.4,2.4-0.4c0.7,0,1.3,0.1,1.8,0.3c0.6,0.2,1.1,0.4,1.5,0.8
				c0.4,0.3,0.8,0.8,1.1,1.3c0.3,0.5,0.5,1.1,0.6,1.8H152.7z"/>
			<path class="st4" d="M156,36.4c0-0.9,0.1-1.8,0.4-2.7s0.6-1.6,1.1-2.2s1.1-1.1,1.9-1.5c0.7-0.4,1.6-0.5,2.6-0.5
				c1,0,1.9,0.2,2.7,0.5s1.4,0.8,1.9,1.5c0.5,0.6,0.9,1.3,1.2,2.2c0.3,0.8,0.4,1.7,0.4,2.7c0,0.9-0.1,1.8-0.4,2.6
				c-0.3,0.8-0.6,1.5-1.1,2.2c-0.5,0.6-1.1,1.1-1.9,1.5c-0.8,0.4-1.6,0.5-2.6,0.5s-1.9-0.2-2.6-0.5c-0.8-0.4-1.4-0.8-1.9-1.5
				c-0.5-0.6-0.9-1.3-1.1-2.2C156.1,38.2,156,37.3,156,36.4z M162,42.2c0.8,0,1.6-0.2,2.2-0.5c0.6-0.3,1.1-0.7,1.5-1.3
				c0.4-0.5,0.7-1.1,0.9-1.8c0.2-0.7,0.3-1.4,0.3-2.2c0-0.9-0.1-1.7-0.3-2.4c-0.2-0.7-0.5-1.3-1-1.8c-0.4-0.5-0.9-0.9-1.5-1.2
				c-0.6-0.3-1.3-0.4-2-0.4c-0.8,0-1.5,0.2-2.2,0.5c-0.6,0.3-1.1,0.8-1.5,1.3c-0.4,0.5-0.7,1.1-0.9,1.8c-0.2,0.7-0.3,1.4-0.3,2.2
				c0,0.8,0.1,1.5,0.3,2.2c0.2,0.7,0.5,1.3,0.9,1.8c0.4,0.5,0.9,0.9,1.5,1.3C160.4,42,161.2,42.2,162,42.2z"/>
			<path class="st4" d="M170.5,42.9v-13h4.4c0.4,0,0.7,0,1.1,0c0.3,0,0.7,0.1,1,0.1c0.3,0.1,0.7,0.2,1,0.3c0.3,0.1,0.6,0.3,0.9,0.5
				c0.4,0.3,0.8,0.7,1.1,1.1c0.3,0.5,0.5,0.9,0.7,1.4s0.3,1,0.3,1.5c0.1,0.5,0.1,1,0.1,1.4s0,0.9-0.1,1.3c-0.1,0.4-0.1,0.9-0.3,1.3
				c-0.1,0.4-0.3,0.8-0.5,1.2c-0.2,0.4-0.4,0.7-0.7,1.1c-0.3,0.3-0.6,0.6-1,0.8s-0.7,0.4-1.1,0.5s-0.8,0.2-1.2,0.2
				c-0.4,0-0.8,0.1-1.3,0.1H170.5z M171.7,41.8h2.9c0.6,0,1.1,0,1.6-0.1s1-0.2,1.5-0.5c0.4-0.2,0.8-0.5,1.1-0.9
				c0.3-0.4,0.5-0.8,0.7-1.2s0.3-0.9,0.3-1.4c0.1-0.5,0.1-0.9,0.1-1.4c0-0.5,0-0.9-0.1-1.4c-0.1-0.5-0.2-0.9-0.3-1.4
				s-0.4-0.8-0.7-1.2c-0.3-0.4-0.7-0.7-1.1-0.9c-0.4-0.2-0.8-0.3-1.4-0.4c-0.5-0.1-1.1-0.1-1.6-0.1h-2.9V41.8z"/>
			<path class="st4" d="M183.5,42.9v-13h8.6v1h-7.4v4.7h6.7v1h-6.7v5.1h7.6v1H183.5z"/>
		</g>
	</g>
</g>
</svg>
