<?xml version="1.0" encoding="utf-8"?>
<!-- Generator: Adobe Illustrator 19.0.0, SVG Export Plug-In . SVG Version: 6.00 Build 0)  -->
<svg version="1.1" id="Слой_1" xmlns="http://www.w3.org/2000/svg" xmlns:xlink="http://www.w3.org/1999/xlink" x="0px" y="0px"
	 viewBox="0 0 81.324 81.294" style="enable-background:new 0 0 81.324 81.294;" xml:space="preserve">
<style type="text/css">
	.st0{fill:url(#XMLID_41_);}
</style>
<linearGradient id="XMLID_41_" gradientUnits="userSpaceOnUse" x1="71.7862" y1="-3.592" x2="3.7862" y2="93.0747">
	<stop  offset="0" style="stop-color:#00CFFF"/>
	<stop  offset="0.9019" style="stop-color:#3F72F5"/>
</linearGradient>
<path id="XMLID_267_" class="st0" d="M76.894,55.574c-2.829-2.843-6.603-4.408-10.625-4.408c-1.118,0-2.242,0.125-3.345,0.372
	l-10.89-10.892l10.885-10.889c1.098,0.249,2.223,0.375,3.35,0.375c4.019,0,7.797-1.565,10.64-4.408
	c4.048-4.044,5.445-10.166,3.56-15.597L80.076,8.98l-1.963,0.851l-7.146,7.094l-6.593-6.593l6.993-6.987l0.957-2.119l-1.141-0.385
	C69.585,0.283,67.914,0,66.218,0C62.2,0,58.423,1.567,55.584,4.413c-3.557,3.547-5.109,8.781-4.085,13.721L40.511,29.125
	l-10.74-10.732c1.133-5.024-0.401-10.36-4.038-13.988c-2.835-2.837-6.61-4.399-10.63-4.399c-1.699,0-3.371,0.283-4.968,0.84L9,1.238
	l0.849,1.961l7.094,7.146l-6.593,6.592L3.361,9.941L1.247,8.986l-0.393,1.14c-1.919,5.51-0.549,11.487,3.573,15.598
	c2.829,2.84,6.607,4.404,10.64,4.404c1.04,0,2.076-0.106,3.085-0.315l10.834,10.834L18.156,51.48
	c-1.023-0.212-2.062-0.319-3.095-0.319c-4.017,0-7.797,1.565-10.644,4.409c-4.051,4.046-5.45,10.167-3.564,15.592l0.393,1.141
	l1.965-0.85l7.143-7.093l6.591,6.593l-6.91,6.901l-1.041,2.213l1.141,0.392c1.609,0.554,3.279,0.835,4.962,0.835
	c4.024,0,7.801-1.569,10.633-4.417c3.634-3.613,5.168-8.942,4.039-13.97l10.736-10.738L51.493,63.15
	c-1.05,4.996,0.468,10.113,4.089,13.739c2.832,2.837,6.607,4.399,10.63,4.399c1.688,0,3.358-0.281,4.961-0.834l1.147-0.392
	l-0.85-1.969l-7.094-7.142l6.593-6.593l6.907,6.911l2.205,1.041l0.395-1.141C82.387,65.646,81.013,59.669,76.894,55.574z
	 M78.77,68.992l-7.799-7.799l-9.77,9.76L69,78.751c-0.904,0.199-1.836,0.3-2.782,0.3c-3.419,0-6.632-1.33-9.046-3.744
	c-3.225-3.229-4.478-7.8-3.352-12.229l0.157-0.62L40.511,49.001l-13.23,13.231l0.167,0.629c1.209,4.441-0.055,9.205-3.299,12.437
	c-2.409,2.423-5.624,3.758-9.05,3.758c-0.935,0-1.867-0.102-2.781-0.301l7.801-7.797l-9.764-9.769l-7.792,7.796
	c-0.94-4.263,0.341-8.729,3.443-11.832c2.417-2.418,5.633-3.749,9.056-3.749c1.07,0,2.138,0.134,3.171,0.396l0.62,0.16
	l13.305-13.314L18.846,27.34l-0.618,0.153c-1.039,0.26-2.103,0.392-3.162,0.392c-3.427,0-6.642-1.329-9.052-3.744
	c-3.12-3.111-4.406-7.577-3.456-11.831l7.795,7.791l9.764-9.76l-7.794-7.794c0.912-0.201,1.844-0.304,2.783-0.304
	c3.419,0,6.631,1.328,9.042,3.739c3.244,3.24,4.508,8.012,3.297,12.458l-0.166,0.626l13.226,13.227L53.97,18.826L53.81,18.21
	c-1.103-4.371,0.182-9.053,3.353-12.219c2.414-2.423,5.626-3.757,9.046-3.757c0.94,0,1.873,0.102,2.783,0.303l-7.773,7.774
	l9.708,10.633l7.806-6.975c0.926,4.255-0.171,7.773-3.417,11.016c-2.208,2.206-5.254,3.324-9.056,3.324
	c-1.002,0-2.041-0.291-3.045-0.571l-0.29-0.081l-0.625-0.358L48.86,40.7l13.395,13.361l0.62-0.188
	c4.588-1.243,9.248,0.077,12.436,3.289C78.473,60.312,79.735,64.681,78.77,68.992z"/>
</svg>
