<?xml version="1.0" encoding="utf-8"?>
<!-- Generator: Adobe Illustrator 19.0.0, SVG Export Plug-In . SVG Version: 6.00 Build 0)  -->
<svg version="1.1" id="Слой_1" xmlns="http://www.w3.org/2000/svg" xmlns:xlink="http://www.w3.org/1999/xlink" x="0px" y="0px"
	 viewBox="0 0 33.827 26.536" style="enable-background:new 0 0 33.827 26.536;" xml:space="preserve">
<style type="text/css">
	.st0{fill:#00C9E8;}
</style>
<g id="XMLID_133_">
	<path id="XMLID_135_" class="st0" d="M20.951,17.583c0-2.923,0.577-5.576,1.73-7.961c1.154-2.384,2.9-4.538,5.238-6.461
		c2.339-1.923,3.83-2.885,4.477-2.885c0.4,0,0.738,0.2,1.016,0.601c0.276,0.399,0.415,0.769,0.415,1.107l-0.139,0.369
		c-5.045,3.2-7.568,7.077-7.568,11.63c0,1.415,0.246,2.123,0.738,2.123l0.554-0.139c0.369-0.153,0.678-0.23,0.923-0.23
		c1.447,0,2.654,0.53,3.623,1.592c0.97,1.062,1.454,2.346,1.454,3.854c0,1.478-0.523,2.738-1.569,3.784
		c-1.046,1.046-2.308,1.569-3.784,1.569c-2.062,0-3.762-0.854-5.1-2.562C21.62,22.268,20.951,20.137,20.951,17.583z"/>
	<path id="XMLID_141_" class="st0" d="M0,17.307c0-2.923,0.576-5.577,1.73-7.962c1.153-2.384,2.9-4.537,5.238-6.461
		C9.307,0.962,10.799,0,11.445,0c0.4,0,0.738,0.2,1.015,0.6c0.277,0.4,0.416,0.77,0.416,1.107l-0.139,0.369
		c-5.046,3.2-7.568,7.077-7.568,11.63c0,1.416,0.246,2.123,0.738,2.123l0.554-0.138c0.369-0.154,0.677-0.231,0.923-0.231
		c1.446,0,2.653,0.531,3.623,1.593c0.969,1.062,1.453,2.346,1.453,3.854c0,1.477-0.522,2.737-1.568,3.784
		c-1.046,1.046-2.308,1.569-3.785,1.569c-2.061,0-3.761-0.854-5.1-2.562C0.669,21.99,0,19.859,0,17.307z"/>
</g>
</svg>
