<?xml version="1.0" encoding="utf-8"?>
<!-- Generator: Adobe Illustrator 19.0.0, SVG Export Plug-In . SVG Version: 6.00 Build 0)  -->
<svg version="1.1" id="Слой_1" xmlns="http://www.w3.org/2000/svg" xmlns:xlink="http://www.w3.org/1999/xlink" x="0px" y="0px"
	 viewBox="0 0 33.827 26.536" style="enable-background:new 0 0 33.827 26.536;" xml:space="preserve">
<style type="text/css">
	.st0{fill:#00C9E8;}
</style>
<g id="XMLID_144_">
	<path id="XMLID_152_" class="st0" d="M12.876,8.953c0,2.923-0.577,5.576-1.73,7.961c-1.154,2.384-2.9,4.538-5.238,6.461
		c-2.339,1.923-3.83,2.885-4.477,2.885c-0.4,0-0.738-0.2-1.016-0.601C0.139,25.26,0,24.891,0,24.552l0.139-0.369
		c5.045-3.2,7.568-7.077,7.568-11.63c0-1.415-0.246-2.123-0.738-2.123l-0.554,0.139c-0.369,0.153-0.678,0.23-0.923,0.23
		c-1.447,0-2.654-0.53-3.623-1.592c-0.97-1.062-1.454-2.346-1.454-3.854c0-1.478,0.523-2.738,1.569-3.784S4.292,0,5.769,0
		c2.062,0,3.762,0.854,5.1,2.562C12.207,4.269,12.876,6.399,12.876,8.953z"/>
	<path id="XMLID_154_" class="st0" d="M33.827,9.229c0,2.923-0.576,5.577-1.73,7.962c-1.153,2.384-2.9,4.537-5.238,6.461
		c-2.338,1.922-3.83,2.884-4.477,2.884c-0.4,0-0.738-0.2-1.015-0.6c-0.277-0.4-0.416-0.77-0.416-1.107l0.139-0.369
		c5.046-3.2,7.568-7.077,7.568-11.63c0-1.416-0.246-2.123-0.738-2.123l-0.554,0.138c-0.369,0.154-0.677,0.231-0.923,0.231
		c-1.446,0-2.653-0.531-3.623-1.593c-0.969-1.062-1.453-2.346-1.453-3.854c0-1.477,0.522-2.737,1.568-3.784
		c1.046-1.046,2.308-1.569,3.785-1.569c2.061,0,3.761,0.854,5.1,2.562C33.158,4.546,33.827,6.677,33.827,9.229z"/>
</g>
</svg>
